<?xml version="1.0" encoding="utf-8"?>
<!-- Generator: Adobe Illustrator 24.0.0, SVG Export Plug-In . SVG Version: 6.00 Build 0)  -->
<svg version="1.1" id="Layer_1" xmlns="http://www.w3.org/2000/svg" xmlns:xlink="http://www.w3.org/1999/xlink" x="0px" y="0px"
	 viewBox="0 0 202 50" style="enable-background:new 0 0 202 50;" xml:space="preserve">
<style type="text/css">
	.st0{fill:#EE3159;}
	.st1{display:none;}
	.st2{display:inline;}
</style>
<g>
	<g>
		<path d="M59.58,26.2c0-6.1,4.39-11.69,11.79-11.69c7.37,0,11.76,5.59,11.76,11.69s-4.39,11.69-11.76,11.69
			C63.97,37.89,59.58,32.3,59.58,26.2z M77.89,26.2c0-3.65-2.48-7.05-6.51-7.05c-4.07,0-6.51,3.4-6.51,7.05
			c0,3.65,2.45,7.05,6.51,7.05C75.41,33.25,77.89,29.85,77.89,26.2z"/>
		<path d="M124.8,22h4.86v2.22c0.86-1.65,2.64-2.61,5.02-2.61c1.97,0,3.46,0.67,4.29,1.75c0.95,1.18,1.21,2.67,1.21,4.86v9.09h-4.86
			v-7.85c0-2.19-0.67-3.72-2.7-3.72c-1.97,0-2.96,1.53-2.96,3.88v7.69h-4.86V22z"/>
		<path class="st0" d="M166.08,29.34c-0.86,4.74-4.96,8.55-11.09,8.55c-7.5,0-11.95-5.47-11.95-11.73c0-6.07,4.39-11.66,11.66-11.66
			c6.9,0,10.71,4.13,11.34,9.22h-5.37c-0.48-2.61-2.48-4.58-5.66-4.58c-4.35,0-6.74,3.37-6.74,7.02c0,3.91,2.54,7.09,6.99,7.09
			c2.51,0,4.74-1.68,5.34-3.91H166.08z"/>
		<path class="st0" d="M198.88,37.32c-0.73,0.13-1.81,0.25-3.24,0.25c-2.29,0-5.43-0.29-5.43-5.4v-6.55h-2.42V22h2.42v-4.54h4.83V22
			h3.5v3.62h-3.5v5.47c0,2.26,0.89,2.61,2.1,2.61c0.6,0,1.3-0.03,1.75-0.1V37.32z"/>
	</g>
	<path d="M95.78,21.62c-2,0-3.97,1.18-4.7,2.57V22h-4.86v22.24h4.86v-9.12c0.01,0.01,0.01,0.02,0.02,0.03v-5.09
		c-0.01-0.13-0.02-0.27-0.02-0.41c0-2.13,1.46-3.91,3.69-3.91c2.16,0,3.62,1.78,3.62,3.91c0,2.13-1.46,3.91-3.62,3.91
		c-0.56,0-1.07-0.11-1.52-0.31v3.84c0.77,0.38,1.65,0.61,2.53,0.61c4.42,0,7.47-3.46,7.47-8.04
		C103.25,25.08,100.2,21.62,95.78,21.62z"/>
	<path class="st0" d="M180.32,22v2.19c-0.73-1.4-2.7-2.57-4.67-2.57c-4.42,0-7.47,3.46-7.47,8.04c0,4.58,3.05,8.04,7.47,8.04
		c0.88,0,1.75-0.23,2.52-0.6v-3.84c-0.45,0.2-0.95,0.31-1.5,0.31c-2.19,0-3.65-1.78-3.65-3.91c0-2.1,1.46-3.91,3.65-3.91
		c2.14,0,3.58,1.73,3.65,3.77h0v0.07c0,0.02,0,0.04,0,0.07c0,0.02,0,0.05,0,0.07v5.43c0,0,0,0,0-0.01v2.16h4.86V22H180.32z"/>
	<path class="st0" d="M43.83,30.74"/>
	<path class="st0" d="M46.31,5.77c-1.92-1.93-5.04-3.89-8.76-4.53c-4.63-0.8-8.25,0.64-9.56,1.24c0.67,0.51,1.32,1.07,1.92,1.67
		l1.84,1.84c1.38-0.17,7.13-0.71,11.31,3.02c6.31,4.83,4.71,18.88,0.76,21.73C53.06,24.07,52.89,12.42,46.31,5.77z"/>
	<g>
		<g>
			<path d="M27.48,36.5v-8.6h4.34V24.6h-4.34v-4.57h-3.31v4.57h-4.34v3.31h4.34v8.62C25.27,36.69,26.38,36.69,27.48,36.5z"/>
		</g>
	</g>
	<path class="st0" d="M37.29,14.78l-9.01-9.01c-6.36-6.36-16.71-6.36-23.07,0c-3.08,3.08-4.78,7.18-4.78,11.53
		c0,4.36,1.7,8.45,4.78,11.53l9.01,9.01c0,0,0.01,0.01,0.01,0.01l11.53,11.53l10.76-10.76l-0.03-0.03c0.27-0.24,0.54-0.48,0.8-0.74
		C43.66,31.49,43.66,21.14,37.29,14.78z M17.47,34.61c-4.87-4.87-5.41-12.25-0.54-17.12c-5.47,2.49-7.48,5.69-7.77,8.81l-0.7-0.7
		c-2.21-2.21-3.43-5.16-3.43-8.29c0-3.13,1.22-6.08,3.43-8.29c2.29-2.29,5.29-3.43,8.29-3.43s6,1.14,8.29,3.43l9.01,9.01
		c4.57,4.57,4.57,12.01,0,16.58C29.48,39.18,22.04,39.18,17.47,34.61z"/>
	<path d="M116.34,32.93c-0.41,0.76-1.21,1.3-2.63,1.3c-2.54,0-3.31-1.56-3.4-3.4h11.03c0.16-0.92,0.16-1.62,0.16-2.26
		c0-3.75-3.08-6.99-7.88-6.99c-5.31,0-8.14,3.59-8.14,8.07c0,4.74,2.89,8.07,8.26,8.07c4.16,0,6.83-2.11,7.47-4.8H116.34z
		 M113.58,24.83c1.84,0,3.15,1.24,3.15,3.21h-6.42C110.31,25.97,111.67,24.83,113.58,24.83z"/>
	<g class="st1">
		<path class="st2" d="M103.78,48.13c-0.14,0.75-0.78,1.35-1.75,1.35c-1.18,0-1.88-0.86-1.88-1.85c0-0.96,0.69-1.84,1.84-1.84
			c1.09,0,1.69,0.65,1.79,1.45h-0.85c-0.08-0.41-0.39-0.72-0.89-0.72c-0.69,0-1.06,0.53-1.06,1.11c0,0.62,0.4,1.12,1.1,1.12
			c0.4,0,0.75-0.27,0.84-0.62H103.78z"/>
		<path class="st2" d="M107.5,49.39l-0.13-0.43h-1.25l-0.14,0.43h-0.87l1.25-3.5h0.75l1.27,3.5H107.5z M106.74,46.89l-0.43,1.44
			h0.85L106.74,46.89z"/>
		<path class="st2" d="M110.28,46.59h-0.79v-0.7h2.4v0.7h-0.8v2.8h-0.81V46.59z"/>
		<path class="st2" d="M115.62,48h-1.21v1.39h-0.81v-3.5h0.81v1.42h1.21v-1.42h0.81v3.5h-0.81V48z"/>
		<path class="st2" d="M118.22,47.64c0-0.96,0.69-1.84,1.86-1.84c1.16,0,1.85,0.88,1.85,1.84s-0.69,1.84-1.85,1.84
			C118.91,49.48,118.22,48.6,118.22,47.64z M121.1,47.64c0-0.58-0.39-1.11-1.03-1.11c-0.64,0-1.03,0.54-1.03,1.11
			c0,0.58,0.39,1.11,1.03,1.11C120.71,48.75,121.1,48.21,121.1,47.64z"/>
		<path class="st2" d="M125.53,48.69v0.7h-1.81v-3.5h0.81v2.8H125.53z"/>
		<path class="st2" d="M127.29,45.88h0.82v3.5h-0.82V45.88z"/>
		<path class="st2" d="M133.53,48.13c-0.14,0.75-0.78,1.35-1.75,1.35c-1.18,0-1.88-0.86-1.88-1.85c0-0.96,0.69-1.84,1.84-1.84
			c1.09,0,1.69,0.65,1.79,1.45h-0.85c-0.08-0.41-0.39-0.72-0.89-0.72c-0.69,0-1.06,0.53-1.06,1.11c0,0.62,0.4,1.12,1.1,1.12
			c0.4,0,0.75-0.27,0.84-0.62H133.53z"/>
		<path class="st2" d="M138.65,46.57v0.95h1.33v0.67h-1.33v1.21h-0.81v-3.5h2.14v0.68H138.65z"/>
		<path class="st2" d="M143.67,49.39l-0.13-0.43h-1.25l-0.14,0.43h-0.87l1.25-3.5h0.75l1.27,3.5H143.67z M142.91,46.89l-0.43,1.44
			h0.85L142.91,46.89z"/>
		<path class="st2" d="M146.2,45.88h0.82v3.5h-0.82V45.88z"/>
		<path class="st2" d="M149.53,46.59h-0.79v-0.7h2.4v0.7h-0.8v2.8h-0.81V46.59z"/>
		<path class="st2" d="M154.87,48h-1.21v1.39h-0.81v-3.5h0.81v1.42h1.21v-1.42h0.81v3.5h-0.81V48z"/>
		<path class="st2" d="M160.97,46.57v0.95h1.33v0.67h-1.33v1.21h-0.81v-3.5h2.14v0.68H160.97z"/>
		<path class="st2" d="M164.04,47.64c0-0.96,0.69-1.84,1.86-1.84c1.16,0,1.85,0.88,1.85,1.84s-0.69,1.84-1.85,1.84
			C164.73,49.48,164.04,48.6,164.04,47.64z M166.92,47.64c0-0.58-0.39-1.11-1.03-1.11c-0.64,0-1.03,0.54-1.03,1.11
			c0,0.58,0.39,1.11,1.03,1.11C166.53,48.75,166.92,48.21,166.92,47.64z"/>
		<path class="st2" d="M169.54,45.88h1.47c0.78,0,1.28,0.59,1.28,1.27c0,0.49-0.26,0.93-0.7,1.13l0.7,1.11h-0.94l-0.62-0.97h-0.38
			v0.97h-0.81V45.88z M171.47,47.15c0-0.33-0.22-0.61-0.56-0.61h-0.56v1.21h0.56C171.25,47.76,171.47,47.48,171.47,47.15z"/>
		<path class="st2" d="M177.83,49.39h-0.79v-2.17l-0.76,2.17h-0.6l-0.78-2.17v2.17h-0.79v-3.5h0.94l0.94,2.44l0.93-2.44h0.92V49.39z
			"/>
		<path class="st2" d="M181.87,49.39l-0.13-0.43h-1.25l-0.14,0.43h-0.87l1.25-3.5h0.75l1.27,3.5H181.87z M181.11,46.89l-0.43,1.44
			h0.85L181.11,46.89z"/>
		<path class="st2" d="M184.65,46.59h-0.79v-0.7h2.4v0.7h-0.8v2.8h-0.81V46.59z"/>
		<path class="st2" d="M187.96,45.88h0.82v3.5h-0.82V45.88z"/>
		<path class="st2" d="M190.58,47.64c0-0.96,0.69-1.84,1.86-1.84c1.16,0,1.85,0.88,1.85,1.84s-0.69,1.84-1.85,1.84
			C191.27,49.48,190.58,48.6,190.58,47.64z M193.46,47.64c0-0.58-0.39-1.11-1.03-1.11c-0.64,0-1.03,0.54-1.03,1.11
			c0,0.58,0.39,1.11,1.03,1.11C193.07,48.75,193.46,48.21,193.46,47.64z"/>
		<path class="st2" d="M198.19,48.17v-2.28H199v3.5h-0.85l-1.26-2.25v2.25h-0.81v-3.5h0.85L198.19,48.17z"/>
	</g>
</g>
<path class="st0" d="M175.88,32.41"/>
<path class="st0" d="M173.26,58.82"/>
</svg>
