<?xml version="1.0" encoding="utf-8"?>
<!-- Generator: Adobe Illustrator 21.1.0, SVG Export Plug-In . SVG Version: 6.00 Build 0)  -->
<svg version="1.1" xmlns="http://www.w3.org/2000/svg" xmlns:xlink="http://www.w3.org/1999/xlink" x="0px" y="0px"
	 viewBox="0 0 210 35" style="enable-background:new 0 0 210 35;" xml:space="preserve">
<style type="text/css">
	.st0{display:none;}
	.st1{fill:#00FF00;}
	.st2{fill:#2AB8EA;}
	.st3{fill:#9F45FF;}
	.st4{fill:#ED1C24;}
	.st5{fill:#F96A00;}
	.st6{fill:#FFDA3E;}
	.st7{fill:#FF0000;}
	.st8{fill:url(#SVGID_1_);}
	.st9{fill:#FF5E00;}
	.st10{clip-path:url(#SVGID_3_);fill:url(#SVGID_4_);}
	.st11{fill:#000093;}
	.st12{clip-path:url(#SVGID_6_);fill:url(#SVGID_7_);}
	.st13{fill:#FFFFFF;}
	.st14{font-family:'MyriadPro-Bold';}
	.st15{font-size:25.8038px;}
	.st16{font-family:'MyriadPro-Regular';}
</style>
<g id="image" class="st0">
	
		<image style="display:inline;overflow:visible;" width="472" height="478" xlink:href="B1B3FAE4.jpg"  transform="matrix(2.1144 0 0 2.1144 -678.5 -497.8432)">
	</image>
</g>
<g id="hands">
	<path class="st1" d="M13.6,11.4c-0.5-2.6,0.9-4.5,2.1-6.1s2.3-4.1,2.7-4.6c0.4-0.5,1.8,0.2,1.4,1.5c-0.4,1.2-1.2,2.2-1.3,2.7
		s-0.5,1.6,2.3,1s2.8-1.2,3.7-1.6C25.3,4,27.5,2.8,28,3.6s-0.4,1.2-2,2.1c-1.6,0.9-3,1.7-3,1.7s2.9-0.5,4.2-0.7
		c1.3-0.2,2.1-0.4,2.3,0.5s0.2,1.1-1.9,1.3s-4.4,1-4.4,1s3,0.3,3.6,0.3c0.6,0,2.3-0.2,2.3,0.9s-1.7,0.9-2.8,0.9c-1.1,0-3.7,0-3.7,0
		s2.5,1.2,3.1,1.8c0.6,0.5,1.2,0.8,0.7,1.4c-0.5,0.6-1.3,0-2.5-0.6s-2.7-1.4-3.7-1.2C19.2,13.2,14.1,14,13.6,11.4z"/>
	<path class="st2" d="M10,17.4c-2.5-0.8-3.5-3-4.2-4.8S3.3,8.6,3.1,8C2.8,7.4,4.1,6.6,5,7.5S6.4,9.6,6.8,10c0.4,0.4,1.2,1.3,2-1.5
		c0.9-2.8,0.3-3.1,0.5-4S9.4,1.1,10.3,1c0.9,0,0.8,0.9,0.8,2.8s0,3.4,0,3.4s1-2.8,1.5-4s0.7-2,1.6-1.8s1.1,0.3,0.2,2.3
		c-0.8,1.9-1.3,4.4-1.3,4.4s1.7-2.4,2-3s1-2.1,1.9-1.6c0.9,0.5,0,2-0.6,2.9c-0.5,0.9-1.8,3.2-1.8,3.2s2.3-1.6,3.1-1.8
		s1.3-0.6,1.6,0.1c0.3,0.7-0.7,1.2-1.8,1.9c-1.1,0.7-2.5,1.6-2.9,2.7C14.4,13.5,12.6,18.3,10,17.4z"/>
	<path class="st3" d="M12.6,24.1c-2.2,1.5-4.5,0.9-6.4,0.4C4.3,24.1,1.6,24,1,23.9c-0.7-0.1-0.5-1.7,0.8-1.9s2.5,0.2,3,0.2
		s1.7-0.1,0-2.5S2.6,17.5,2,16.9c-0.6-0.7-2.7-2.3-2.1-3s1.2-0.1,2.7,1S5.3,17,5.3,17S3.7,14.5,3,13.4S1.8,11.6,2.5,11
		c0.7-0.6,0.9-0.6,2,1.2s2.7,3.7,2.7,3.7S6.3,13.1,6,12.5C5.8,11.9,5,10.4,5.9,10s1.5,1.2,2,2.2c0.4,1,1.4,3.4,1.4,3.4
		s0.2-2.8,0.4-3.6c0.3-0.8,0.3-1.4,1-1.2c0.8,0.2,0.5,1.2,0.4,2.5c-0.1,1.3-0.3,3,0.4,3.9C12.2,18.2,14.9,22.5,12.6,24.1z"/>
	<path class="st4" d="M21.6,25c0.1,2.6-1.7,4.3-3.1,5.6c-1.4,1.3-2.9,3.6-3.4,4.1c-0.5,0.5-1.7-0.5-1.1-1.7c0.6-1.2,1.5-1.9,1.8-2.5
		c0.2-0.5,0.8-1.5-2.1-1.4s-3,0.7-3.9,0.9c-0.9,0.2-3.3,1-3.7,0.1c-0.3-0.8,0.6-1.1,2.4-1.7c1.8-0.6,3.2-1.2,3.2-1.2s-2.9,0-4.3-0.1
		c-1.3-0.1-2.1,0-2.2-0.9s0-1.1,2.1-1s4.6-0.2,4.6-0.2s-2.9-0.8-3.5-0.9s-2.3-0.3-2.2-1.3c0.2-1,1.9-0.6,2.9-0.4
		c1.1,0.2,3.6,0.6,3.6,0.6s-2.2-1.7-2.8-2.3c-0.5-0.6-1-1-0.4-1.5s1.3,0.2,2.3,1.1s2.4,1.8,3.5,1.8C16.4,22.2,21.5,22.3,21.6,25z"/>
	<path class="st5" d="M26.1,17.2c2.2,1.4,2.5,4.1,2.8,6s1.3,4.4,1.4,5.1c0.1,0.7-1.4,1.1-2,0c-0.6-1.2-0.7-2.4-1-2.9
		c-0.3-0.5-0.8-1.5-2.4,1c-1.6,2.5-1.1,2.9-1.4,3.7c-0.4,0.8-1.1,3.3-1.9,3.1c-0.9-0.2-0.6-1.1-0.1-2.9s0.8-3.3,0.8-3.3
		s-1.6,2.4-2.4,3.5c-0.8,1.1-1.2,1.8-2,1.3c-0.8-0.4-0.9-0.6,0.4-2.3s2.4-3.9,2.4-3.9s-2.3,1.9-2.7,2.3s-1.5,1.8-2.2,1.1
		s0.5-1.9,1.3-2.7c0.8-0.8,2.6-2.6,2.6-2.6s-2.6,0.9-3.5,1s-1.4,0.3-1.5-0.5c-0.1-0.8,0.9-0.9,2.2-1.3c1.3-0.4,2.9-0.9,3.5-1.9
		S23.8,15.7,26.1,17.2z"/>
	<path class="st6" d="M20.9,9.1c2.2-1.4,4.5-0.8,6.4-0.3s4.6,0.6,5.3,0.8c0.7,0.2,0.4,1.8-0.9,1.9c-1.3,0.1-2.5-0.3-3-0.2
		s-1.7,0.1-0.1,2.5s2.2,2.1,2.8,2.8c0.6,0.7,2.6,2.3,2.1,3c-0.6,0.7-1.2,0.1-2.7-1.1c-1.5-1.2-2.7-2.1-2.7-2.1s1.6,2.5,2.2,3.6
		c0.6,1.2,1.1,1.8,0.4,2.3c-0.7,0.5-0.9,0.6-1.9-1.2c-1-1.9-2.6-3.8-2.6-3.8s0.8,2.9,1,3.4c0.2,0.6,1,2.1,0.1,2.5s-1.5-1.2-1.9-2.3
		c-0.4-1-1.4-3.4-1.4-3.4s-0.2,2.8-0.5,3.6c-0.3,0.8-0.3,1.4-1,1.2s-0.5-1.2-0.3-2.5c0.1-1.3,0.3-3-0.3-3.9
		C21.2,15,18.6,10.6,20.9,9.1z"/>
	<path class="st1" d="M20.8,5.9c2.9-0.6,2.8-1.2,3.7-1.6C25.3,4,27.5,2.8,28,3.6s-0.4,1.2-2,2.1c-1.6,0.9-3,1.7-3,1.7
		s2.9-0.5,4.2-0.7c1.3-0.2,2.1-0.4,2.3,0.5s0.2,1.1-1.9,1.3s-4.4,1-4.4,1s3,0.3,3.6,0.3c0.6,0,2.3-0.2,2.3,0.9s-1.7,0.9-2.8,0.9
		c-1.1,0-3.7,0-3.7,0s2.5,1.2,3.1,1.8c0.6,0.5,1.2,0.8,0.7,1.4c-0.5,0.6-1.3,0-2.5-0.6s-2.7-1.4-3.7-1.2l-1.9,0.3"/>
</g>
<g id="Layer_1">
	<g id="glow" class="st0">
	</g>
	<g id="outer_x5F_glow">
		<image style="overflow:visible;" width="91" height="90" xlink:href="B1B3FAE4.png"  transform="matrix(1 0 0 1 -28.5 -27.5)">
		</image>
	</g>
	<path class="st7" d="M22.9,15.6c0,2.5-3.6,8.6-6,8.6c-2.2,0-6.3-6-6.3-8.7c0-3.1,3.2-2.7,6.3-2.7S22.9,12.4,22.9,15.6z"/>
	<g id="heart_x5F_glow">
		<image style="overflow:visible;" width="81" height="79" xlink:href="B1B3FAE3.png"  transform="matrix(1 0 0 1 -23.5 -23.5)">
		</image>
	</g>
	<linearGradient id="SVGID_1_" gradientUnits="userSpaceOnUse" x1="16.9026" y1="20.9419" x2="16.9026" y2="16.0315">
		<stop  offset="0" style="stop-color:#404F23"/>
		<stop  offset="0.8" style="stop-color:#C4FF11"/>
	</linearGradient>
	<path class="st8" d="M11.1,17.6c0,0-0.5,0.9,0.2,1.2c0.7,0.3,1.2-0.1,1.3-0.2c0.1-0.2,0.2-0.5-0.1-0.9c-0.3-0.4-0.5-0.5-0.5-0.5
		s0.5,0.2,0.7,0.4c0.2,0.2,0.4,0.7,0.4,0.7s0.4,0.1,0.8-0.2c0.4-0.2,0.9-0.6,1.2-0.7c0.3-0.1,1.1,0,1.1,0s0-0.4,0.4-0.7
		s0.9-0.3,0.9-0.3s-0.5,0.2-0.5,0.5c-0.1,0.3,0,0.7,0,0.7s0.6,0.4,1.2,0.5c0.6,0.2,2.6,0,2.6,0s0.2-0.4,0-0.6S20.2,17,20.2,17
		s0.6-0.2,0.9,0s0.3,0.2,0.4,0.5c0.1,0.3,0.1,0.5,0.1,0.5s1-0.2,1.2-0.5c0.2-0.4-0.1-0.6-0.1-0.6l0.2-0.9c0,0,0.6,0.5,0.6,0.9
		s-0.2,1-0.5,1.2s-0.5,0.5-0.5,0.5s0.3,0,0.4,0.3c0.1,0.3-0.2,0.9-0.2,0.9s0-0.3-0.1-0.5c-0.1-0.2-0.5-0.3-0.5-0.3s-0.8,0.2-1.2,0.2
		c-0.4,0-1.9,0-1.9,0s0.1,0.5-0.3,0.8c-0.4,0.2-1.1,0.3-1.1,0.3s0.4-0.2,0.5-0.5c0.2-0.4,0.1-0.8-0.2-0.9s-0.7-0.4-1.2-0.5
		c-0.5-0.1-1.6,0.3-1.6,0.3s0.2,0.2,0.2,0.6s-0.5,0.8-0.5,0.8s0.1-0.2,0-0.5s-0.2-0.5-0.2-0.5s-0.9,0-1.3,0.2s-0.6,0.4-0.9,0.5
		s-0.5,0-0.5,0s0.1,0.2,0.1,0.5s-0.5,0.6-0.5,0.6s0.2-0.3,0.2-0.5s-0.5-0.5-0.9-1.1c-0.5-0.5-0.4-0.9-0.4-1.5c0-0.5,0.4-1.3,0.4-1.3
		L11.1,17.6z"/>
	<path class="st9" d="M16.9,13.9c1.6,0,2.8-1.3,3-2.4c0.2-1.1,0-2.2,0-2.2s-0.2,0.5-0.5,0.5C19,10,18.7,10,18.7,10s0.2-0.3-0.2-1
		c-0.4-0.7-1.9-2-1.9-2s-0.1,0.7-0.2,1.2s-0.6,1.2-0.6,1.2S15.3,9,15.2,8.7c-0.1-0.3-0.2-0.9-0.2-0.9s-0.7,0.6-0.8,1.3
		c-0.1,0.7,0.2,1.3,0.4,1.6c0.2,0.3,0.7,0.5,0.7,0.5s-0.5,0.2-0.8-0.1s-0.7-0.8-0.7-0.8s-0.3,0.5-0.2,1
		C13.7,12.1,14.5,13.9,16.9,13.9z"/>
	<g>
		<defs>
			<path id="SVGID_2_" d="M16.9,13.9c1.6,0,2.8-1.3,3-2.4c0.2-1.1,0-2.2,0-2.2s-0.2,0.5-0.5,0.5C19,10,18.7,10,18.7,10
				s0.2-0.3-0.2-1c-0.4-0.7-1.9-2-1.9-2s-0.1,0.7-0.2,1.2s-0.6,1.2-0.6,1.2S15.3,9,15.2,8.7c-0.1-0.3-0.2-0.9-0.2-0.9
				s-0.7,0.6-0.8,1.3c-0.1,0.7,0.2,1.3,0.4,1.6c0.2,0.3,0.7,0.5,0.7,0.5s-0.5,0.2-0.8-0.1s-0.7-0.8-0.7-0.8s-0.3,0.5-0.2,1
				C13.7,12.1,14.5,13.9,16.9,13.9z"/>
		</defs>
		<clipPath id="SVGID_3_">
			<use xlink:href="#SVGID_2_"  style="overflow:visible;"/>
		</clipPath>
		<radialGradient id="SVGID_4_" cx="17.1779" cy="12.9812" r="3.852" gradientUnits="userSpaceOnUse">
			<stop  offset="0" style="stop-color:#FFFF7E"/>
			<stop  offset="0.1331" style="stop-color:#FFFA7A"/>
			<stop  offset="0.2949" style="stop-color:#FFEB6E"/>
			<stop  offset="0.4717" style="stop-color:#FFD25B"/>
			<stop  offset="0.6592" style="stop-color:#FFB040"/>
			<stop  offset="0.853" style="stop-color:#FF841E"/>
			<stop  offset="1" style="stop-color:#FF5E00"/>
		</radialGradient>
		<path class="st10" d="M20.5,11.9c0,1.8-1.3,5.4-3.1,5.4s-3.4-3.6-3.4-5.4s1.5-3.3,3.3-3.3S20.5,10.1,20.5,11.9z"/>
	</g>
	<rect x="16.3" y="10.4" class="st11" width="1.2" height="5.6"/>
	
		<rect x="16.3" y="10" transform="matrix(-1.836970e-16 1 -1 -1.836970e-16 29.1564 -4.7317)" class="st11" width="1.2" height="4.4"/>
	<g>
		<defs>
			<path id="SVGID_5_" d="M10.8,17.3c0,0-0.4,1.5,0.3,1.9c0.7,0.5,1.6-0.2,2-0.3s1.8-0.5,2.2-0.7c0.4-0.2,1.1-0.2,3.6,0.5
				s3.6-0.3,3.9-0.7s0.3-1.1,0.1-1.3"/>
		</defs>
		<clipPath id="SVGID_6_">
			<use xlink:href="#SVGID_5_"  style="overflow:visible;"/>
		</clipPath>
		<linearGradient id="SVGID_7_" gradientUnits="userSpaceOnUse" x1="16.9026" y1="20.9419" x2="16.9026" y2="16.0315">
			<stop  offset="0" style="stop-color:#404F23"/>
			<stop  offset="0.8" style="stop-color:#C4FF11"/>
		</linearGradient>
		<path class="st12" d="M11.1,17.6c0,0-0.5,0.9,0.2,1.2c0.7,0.3,1.2-0.1,1.3-0.2c0.1-0.2,0.2-0.5-0.1-0.9c-0.3-0.4-0.5-0.5-0.5-0.5
			s0.5,0.2,0.7,0.4c0.2,0.2,0.4,0.7,0.4,0.7s0.4,0.1,0.8-0.2c0.4-0.2,0.9-0.6,1.2-0.7c0.3-0.1,1.1,0,1.1,0s0-0.4,0.4-0.7
			s0.9-0.3,0.9-0.3s-0.5,0.2-0.5,0.5c-0.1,0.3,0,0.7,0,0.7s0.6,0.4,1.2,0.5c0.6,0.2,2.6,0,2.6,0s0.2-0.4,0-0.6S20.2,17,20.2,17
			s0.6-0.2,0.9,0s0.3,0.2,0.4,0.5c0.1,0.3,0.1,0.5,0.1,0.5s1-0.2,1.2-0.5c0.2-0.4-0.1-0.6-0.1-0.6l0.2-0.9c0,0,0.6,0.5,0.6,0.9
			s-0.2,1-0.5,1.2s-0.5,0.5-0.5,0.5s0.3,0,0.4,0.3c0.1,0.3-0.2,0.9-0.2,0.9s0-0.3-0.1-0.5c-0.1-0.2-0.5-0.3-0.5-0.3
			s-0.8,0.2-1.2,0.2c-0.4,0-1.9,0-1.9,0s0.1,0.5-0.3,0.8c-0.4,0.2-1.1,0.3-1.1,0.3s0.4-0.2,0.5-0.5c0.2-0.4,0.1-0.8-0.2-0.9
			s-0.7-0.4-1.2-0.5c-0.5-0.1-1.6,0.3-1.6,0.3s0.2,0.2,0.2,0.6s-0.5,0.8-0.5,0.8s0.1-0.2,0-0.5s-0.2-0.5-0.2-0.5s-0.9,0-1.3,0.2
			s-0.6,0.4-0.9,0.5s-0.5,0-0.5,0s0.1,0.2,0.1,0.5s-0.5,0.6-0.5,0.6s0.2-0.3,0.2-0.5s-0.5-0.5-0.9-1.1c-0.5-0.5-0.4-0.9-0.4-1.5
			c0-0.5,0.4-1.3,0.4-1.3L11.1,17.6z"/>
	</g>
	<text transform="matrix(1 0 0 1 35.7832 24.7578)" class="st13 st14 st15">Open</text>
	<text transform="matrix(1 0 0 1 98.7344 24.7441)" class="st13 st16 st15">catechesis</text>
</g>
</svg>
